 <svg  version="1.0" xmlns="http://www.w3.org/2000/svg"  width="300.000000pt" height="300.000000pt" viewBox="0 0 300.000000 300.000000"  preserveAspectRatio="xMidYMid meet">  <g transform="translate(0.000000,300.000000) scale(0.050000,-0.050000)" fill="#ffffff" stroke="none"> <path d="M2938 5173 c-28 -15 -465 -327 -970 -694 -505 -366 -992 -720 -1084 -785 -214 -154 -247 -216 -167 -315 59 -74 135 -59 298 58 l145 103 0 -1301 0 -1301 49 -49 49 -49 1730 0 c1225 0 1744 6 1779 22 93 42 93 49 93 1389 0 698 4 1269 9 1269 5 0 66 -39 135 -87 182 -125 296 -128 326 -8 25 96 -21 142 -468 465 l-442 320 0 392 c0 433 -14 478 -146 478 -116 0 -134 -49 -134 -370 0 -159 -4 -290 -9 -290 -4 0 -239 167 -520 371 -580 420 -590 425 -673 382z m1287 -1177 l355 -258 -5 -1304 -5 -1304 -1565 -5 -1565 -5 1 1315 1 1315 782 563 782 563 432 -311 c238 -172 592 -428 787 -569z"/> <path d="M2933 4023 c-26 -28 -33 -77 -33 -220 0 -214 8 -208 -138 -93 -154 121 -242 116 -242 -14 0 -47 30 -78 190 -198 l190 -143 0 -247 c0 -137 -4 -248 -8 -248 -5 0 -97 52 -205 116 l-197 116 -43 238 c-50 278 -94 338 -196 263 -42 -30 -44 -77 -13 -241 28 -149 36 -146 -129 -42 -188 120 -269 116 -269 -15 0 -47 19 -68 119 -131 65 -40 135 -84 155 -97 30 -19 31 -25 6 -34 -16 -7 -82 -31 -145 -54 -137 -50 -173 -99 -126 -170 42 -64 59 -62 320 24 l221 72 197 -115 c226 -133 227 -117 -25 -262 l-167 -96 -213 76 c-280 101 -267 98 -305 68 -99 -78 -57 -152 124 -218 161 -59 161 -62 -6 -163 -289 -175 -182 -343 111 -174 163 93 155 94 133 -21 -41 -214 -9 -295 106 -265 50 13 50 14 103 274 26 128 50 235 54 238 5 3 76 45 158 93 83 47 170 100 195 116 l45 29 0 -248 0 -247 -185 -140 c-199 -150 -242 -226 -163 -284 54 -39 74 -33 206 64 67 50 127 90 132 90 6 0 10 -84 10 -187 0 -238 55 -307 176 -222 40 29 44 48 44 221 l0 190 128 -91 c141 -101 170 -108 219 -54 65 72 41 111 -157 263 l-190 145 0 246 0 246 192 -113 c214 -125 208 -117 259 -391 44 -233 86 -286 181 -223 56 36 56 38 15 278 l-13 79 118 -67 c65 -37 132 -76 150 -87 46 -27 133 0 148 47 23 72 -8 110 -161 200 l-151 90 106 45 c182 77 206 93 212 149 14 118 -62 127 -308 37 -270 -100 -234 -102 -461 31 l-191 113 206 121 207 121 216 -75 c239 -84 306 -84 327 -1 17 69 -26 112 -162 158 -151 51 -151 55 10 154 143 88 172 126 150 197 -25 79 -101 71 -261 -27 -166 -103 -163 -106 -125 101 30 163 -20 241 -119 185 -56 -31 -66 -63 -133 -440 -11 -61 -29 -80 -137 -142 -69 -40 -159 -92 -200 -117 l-75 -44 0 251 0 251 180 136 c98 75 184 152 191 171 19 57 -10 114 -64 128 -50 12 -64 5 -242 -129 l-65 -49 0 183 c0 235 -85 338 -187 225z"/> </g> </svg> 