 <svg  version="1.0" xmlns="http://www.w3.org/2000/svg"  width="300.000000pt" height="306.000000pt" viewBox="0 0 300.000000 306.000000"  preserveAspectRatio="xMidYMid meet">  <g transform="translate(0.000000,306.000000) scale(0.050000,-0.050000)" fill="#ffffff" stroke="none"> <path d="M2380 5428 c-1203 -102 -2035 -349 -2192 -652 -114 -221 273 -468 1011 -647 339 -82 401 -157 401 -488 l0 -202 115 58 c828 417 1815 421 2626 12 l135 -67 7 214 c11 322 79 403 397 473 1998 440 882 1280 -1730 1301 -374 3 -720 2 -770 -2z"/> <path d="M160 2925 c1 -1640 -13 -1516 185 -1697 786 -718 3700 -856 5010 -238 336 159 525 328 555 498 6 34 9 693 6 1465 l-6 1403 -140 -85 c-178 -108 -472 -220 -780 -295 -345 -84 -330 -58 -330 -562 0 -527 -31 -627 -221 -734 l-89 -50 -1312 0 -1311 0 -97 60 c-178 110 -199 179 -206 689 -6 433 -17 506 -82 532 -18 7 -135 38 -262 69 -366 91 -677 214 -834 332 -35 26 -68 48 -75 48 -6 0 -11 -646 -11 -1435z m2967 -613 c264 -110 157 -510 -125 -465 -236 38 -273 367 -52 465 77 34 97 34 177 0z m-527 -249 c62 -45 111 -177 93 -249 -60 -238 -393 -255 -469 -24 -74 225 185 413 376 273z m1180 -3 c78 -55 113 -169 82 -264 -72 -218 -367 -232 -455 -22 -97 233 164 435 373 286z m-580 -340 c44 -22 98 -66 122 -98 30 -41 64 -60 123 -68 302 -41 379 -452 117 -628 -138 -94 -306 -76 -435 45 l-74 70 -71 -69 c-323 -314 -796 140 -499 478 37 43 93 78 144 93 47 13 109 51 143 88 122 132 281 165 430 89z"/> <path d="M2600 3608 c-232 -42 -596 -165 -819 -278 l-185 -93 7 -148 c7 -137 13 -154 73 -214 l65 -65 1270 -5 c1539 -7 1469 -22 1469 316 l0 121 -225 108 c-532 254 -1147 350 -1655 258z"/> </g> </svg> 