 <svg  version="1.0" xmlns="http://www.w3.org/2000/svg"  width="300.000000pt" height="273.000000pt" viewBox="0 0 300.000000 273.000000"  preserveAspectRatio="xMidYMid meet">  <g transform="translate(0.000000,273.000000) scale(0.050000,-0.050000)" fill="#ffffff" stroke="none"> <path d="M2362 4802 c-41 -41 -42 -57 -42 -702 l0 -660 -1039 0 c-917 0 -1042 -4 -1070 -31 -27 -28 -31 -137 -31 -897 l0 -864 52 -105 c112 -224 228 -263 781 -263 224 0 407 -6 407 -13 0 -7 -54 -65 -121 -128 l-121 -115 -64 33 c-429 221 -860 -359 -545 -733 333 -395 981 9 782 487 l-32 77 195 196 195 196 1015 0 1014 0 22 -85 c12 -47 26 -97 31 -112 5 -15 -30 -62 -78 -105 -322 -283 -127 -799 302 -798 564 3 622 838 63 912 -84 11 -98 20 -117 73 -38 111 -34 115 126 115 271 0 430 80 521 263 l52 105 0 922 c0 579 -8 966 -22 1040 l-22 118 179 176 179 176 378 0 c458 1 524 20 590 169 51 117 35 213 -53 309 l-66 72 -446 0 c-542 0 -581 -12 -837 -261 l-156 -152 -76 91 c-176 211 -457 389 -748 474 -234 68 -1135 83 -1198 20z m338 -762 l0 -600 -90 0 -90 0 0 600 0 600 90 0 90 0 0 -600z m780 569 c205 -48 404 -158 572 -315 231 -215 241 -170 -125 -537 l-317 -317 -365 0 -365 0 0 600 0 600 235 0 c140 0 288 -13 365 -31z m2276 -173 c13 -13 24 -43 24 -66 0 -83 -31 -90 -399 -90 -511 0 -396 71 -1242 -772 l-730 -728 -100 0 -99 0 770 771 c764 765 838 831 978 881 98 35 764 38 798 4z m-1291 -946 c9 -46 3 -50 -61 -50 l-71 0 47 50 c26 28 53 50 61 50 8 0 19 -22 24 -50z m-1145 -340 l-88 -90 -1436 0 -1436 0 0 90 0 90 1524 0 1524 0 -88 -90z m1160 0 l0 -90 -264 0 -264 0 88 90 88 90 176 0 176 0 0 -90z m-1460 -285 c0 -9 -309 -324 -686 -700 l-685 -685 -548 0 c-728 0 -725 -1 -737 420 l-6 250 41 -65 c60 -96 154 -148 256 -141 l85 6 0 -97 c0 -220 202 -351 387 -252 l76 41 90 -43 c191 -93 387 53 387 287 0 63 3 66 68 58 156 -18 292 110 292 276 0 164 -136 294 -289 276 -61 -7 -67 -2 -98 87 -58 162 -229 239 -377 169 -62 -30 -75 -30 -142 -3 -169 71 -360 -23 -387 -191 -11 -71 -14 -73 -84 -65 -94 12 -198 -41 -258 -131 l-45 -68 0 280 c0 154 6 285 13 293 19 18 2647 16 2647 -2z m1460 -565 c0 -797 -15 -826 -402 -816 l-207 6 -159 586 -159 586 108 109 108 109 355 0 356 0 0 -580z m-3419 279 c59 -31 52 -134 -11 -163 -97 -44 -167 67 -90 144 46 46 50 47 101 19z m388 -10 c56 -57 17 -169 -59 -169 -77 0 -113 102 -57 163 41 45 74 47 116 6z m1969 -124 c23 -85 64 -234 91 -330 l48 -175 -593 0 -594 0 330 330 330 330 173 0 173 0 42 -155z m-2718 -165 c48 -48 49 -58 9 -116 -53 -74 -185 -15 -156 71 29 83 90 102 147 45z m1116 9 c90 -63 14 -198 -86 -153 -61 28 -70 130 -15 162 46 27 49 27 101 -9z m-465 -117 c135 -89 181 -402 59 -402 -49 0 -67 14 -100 76 -67 127 -143 124 -211 -7 -73 -145 -195 -93 -172 73 35 253 241 379 424 260z m2279 -506 c14 -46 31 -106 38 -135 l13 -51 -885 0 -885 0 139 140 139 140 709 -5 708 -5 24 -84z m-2553 -804 c67 -36 123 -141 123 -232 0 -282 -379 -377 -518 -129 -142 252 131 502 395 361z m3128 -38 c68 -67 94 -164 73 -262 -58 -263 -467 -265 -538 -2 -72 268 268 461 465 264z"/> </g> </svg> 