<?xml version="1.0" standalone="no"?>
<!DOCTYPE svg PUBLIC "-//W3C//DTD SVG 20010904//EN"
 "http://www.w3.org/TR/2001/REC-SVG-20010904/DTD/svg10.dtd">
<svg version="1.0" xmlns="http://www.w3.org/2000/svg"
 width="235.000000pt" height="263.000000pt" viewBox="0 0 235.000000 263.000000"
 preserveAspectRatio="xMidYMid meet">
<metadata>
Created by potrace 1.10, written by Peter Selinger 2001-2011
</metadata>
<g transform="translate(0.000000,263.000000) scale(0.100000,-0.100000)"
fill="#ffffff" stroke="none">
<path d="M692 2309 c-173 -8 -195 -16 -211 -76 -14 -51 -14 -76 5 -174 14 -76
14 -88 -1 -148 -76 -302 -70 -1049 11 -1287 14 -42 14 -53 0 -118 -37 -167
-29 -257 27 -284 63 -30 1013 -40 1260 -13 89 9 109 29 115 111 3 36 1 60 -5
58 -5 -2 -22 11 -36 28 -28 33 -36 54 -14 36 8 -7 17 -6 30 3 17 12 17 17 3
71 -14 53 -14 62 4 113 47 141 71 488 58 849 -7 207 -20 322 -48 427 -16 63
-17 76 -4 135 17 79 18 180 3 213 -6 14 -23 30 -37 37 -58 26 -775 38 -1160
19z m746 -523 c35 -18 125 -113 146 -154 9 -18 23 -32 30 -32 35 0 176 -153
176 -191 0 -21 -87 -119 -123 -138 -23 -12 -30 -11 -69 12 -24 14 -52 34 -62
46 -11 12 -22 21 -26 21 -4 0 -25 -28 -48 -62 -85 -132 -241 -288 -364 -365
-32 -20 -58 -38 -58 -40 0 -3 15 -23 34 -46 45 -56 58 -84 51 -106 -9 -28
-121 -131 -143 -131 -46 0 -192 135 -192 179 0 6 -10 15 -22 20 -36 14 -100
68 -140 119 -54 68 -51 90 21 163 33 32 68 59 78 59 22 0 78 -33 117 -69 20
-18 30 -22 33 -13 30 81 268 336 390 416 l72 47 -44 55 c-60 73 -59 91 13 164
61 63 82 71 130 46z m414 -1403 c10 -9 18 -21 18 -26 0 -6 -9 -2 -20 8 -24 22
-39 12 -22 -15 15 -24 5 -26 -20 -3 -20 18 -25 4 -8 -28 14 -26 2 -24 -20 4
-18 22 -18 22 8 48 33 32 40 34 64 12z m-72 -96 c0 -6 -9 -2 -20 8 -11 10 -20
23 -20 28 0 6 9 2 20 -8 11 -10 20 -23 20 -28z m-37 -15 l22 -11 -22 0 c-17
-1 -21 -5 -16 -18 4 -12 -5 -8 -25 11 -18 17 -32 34 -32 40 0 6 5 5 12 -2 17
-17 28 -15 29 6 1 14 2 15 6 1 2 -9 14 -21 26 -27z"/>
<path d="M1874 414 c3 -9 6 -18 6 -20 0 -2 5 -4 10 -4 6 0 10 9 10 20 0 12 -7
20 -16 20 -11 0 -14 -5 -10 -16z"/>
</g>
</svg>
