 <svg  version="1.0" xmlns="http://www.w3.org/2000/svg"  width="300.000000pt" height="260.000000pt" viewBox="0 0 300.000000 260.000000"  preserveAspectRatio="xMidYMid meet">  <g transform="translate(0.000000,260.000000) scale(0.050000,-0.050000)" fill="#ffffff" stroke="none"> <path d="M4840 3878 c0 -71 -5 -80 -35 -68 -272 115 -296 107 -279 -91 l10 -111 -191 -85 c-392 -174 -734 -160 -1321 56 -429 158 -893 153 -1135 -11 -42 -29 -167 -83 -278 -122 -133 -46 -242 -100 -321 -159 -324 -240 -768 -196 -972 97 -190 274 -227 278 -214 26 11 -210 76 -349 244 -520 260 -264 583 -283 1005 -61 l163 87 42 -115 c62 -170 163 -291 301 -361 250 -126 297 -247 299 -776 l2 -367 88 -145 c83 -137 152 -300 152 -362 0 -44 38 -56 86 -26 30 19 75 23 144 15 123 -16 161 1 177 83 22 107 17 117 -127 252 -313 294 -338 505 -89 746 131 127 188 234 189 355 0 99 7 101 170 45 314 -108 364 -169 333 -405 -29 -215 -21 -203 -174 -257 -161 -56 -299 -147 -351 -231 l-43 -69 47 -54 c26 -30 54 -62 62 -72 7 -10 57 10 110 44 131 84 216 117 346 134 138 18 177 39 201 106 140 385 132 376 209 261 73 -111 77 -196 10 -228 -197 -93 -210 -102 -273 -209 -80 -135 -81 -140 -10 -140 126 0 442 149 570 268 57 54 64 184 21 415 -9 48 3 60 166 147 391 211 567 352 768 613 186 243 232 264 508 228 118 -15 122 -14 223 62 202 149 209 212 39 312 -170 99 -246 165 -291 253 -44 86 -118 157 -242 235 -50 31 -142 109 -203 172 -134 137 -136 138 -136 33z"/> </g> </svg> 