 <svg  version="1.0" xmlns="http://www.w3.org/2000/svg"  width="242.000000pt" height="232.000000pt" viewBox="0 0 242.000000 232.000000"  preserveAspectRatio="xMidYMid meet">  <g transform="translate(0.000000,232.000000) scale(0.050000,-0.050000)" fill="#ffffff" stroke="none"> <path d="M1302 3591 c-582 -544 -1064 -999 -1072 -1010 -8 -14 55 -21 189 -21 l201 0 0 -995 c0 -592 8 -1007 20 -1025 21 -34 3440 -47 3473 -13 10 9 19 470 23 1025 l5 1008 201 0 c132 0 196 7 188 21 -25 39 -2132 1999 -2150 1999 -11 0 -495 -445 -1078 -989z m795 -482 c231 -93 245 -461 19 -517 -267 -67 -424 389 -176 513 84 42 63 41 157 4z m714 2 c242 -101 127 -531 -142 -531 -240 0 -251 414 -13 524 90 42 72 42 155 7z m-1216 -414 c212 -131 169 -457 -61 -457 -218 0 -376 270 -251 429 79 101 179 110 312 28z m1870 -17 c141 -155 -11 -440 -234 -440 -260 0 -281 350 -28 478 109 55 188 43 262 -38z m-859 -324 c233 -70 622 -681 586 -922 -50 -329 -364 -429 -622 -199 -171 154 -210 153 -400 -13 -239 -209 -524 -122 -588 179 -59 274 269 849 538 944 109 38 374 44 486 11z"/> <path d="M3154 4447 c-8 -7 -14 -97 -14 -199 l0 -184 272 -257 c149 -141 280 -260 290 -264 11 -4 17 175 13 450 l-5 457 -271 6 c-149 3 -277 -1 -285 -9z"/> </g> </svg> 