 <svg  version="1.0" xmlns="http://www.w3.org/2000/svg"  width="300.000000pt" height="290.000000pt" viewBox="0 0 300.000000 290.000000"  preserveAspectRatio="xMidYMid meet">  <g transform="translate(0.000000,290.000000) scale(0.050000,-0.050000)" fill="#ffffff" stroke="none"> <path d="M2925 4925 c-36 -19 -246 -165 -468 -325 -2121 -1524 -1949 -1385 -1889 -1528 60 -144 170 -136 404 31 89 65 168 117 175 117 7 0 13 -481 13 -1069 l0 -1069 48 -56 49 -56 1706 -5 c1284 -4 1721 0 1764 18 112 46 113 59 113 1196 0 573 5 1041 11 1041 7 0 89 -54 184 -120 242 -169 405 -153 405 41 0 101 16 87 -535 479 l-464 330 0 371 c-1 400 -11 441 -112 479 -154 59 -229 -58 -229 -359 0 -122 -4 -221 -9 -221 -6 0 -230 157 -499 350 -572 409 -570 408 -667 355z m768 -856 c361 -261 691 -501 732 -534 l75 -58 0 -1079 0 -1078 -1500 0 -1500 0 0 1077 c0 1000 2 1079 35 1108 116 103 1458 1054 1477 1047 13 -5 319 -222 681 -483z"/> <path d="M2173 3399 c-69 -55 -70 -158 -3 -302 70 -150 65 -242 -23 -427 -203 -428 21 -1044 284 -781 60 60 61 120 8 289 -47 152 -39 216 52 407 195 406 -48 1026 -318 814z"/> <path d="M2849 3391 c-63 -63 -63 -138 1 -274 74 -159 68 -276 -25 -470 -193 -407 29 -1007 285 -767 59 55 64 128 20 272 -48 158 -38 246 45 421 202 423 -61 1083 -326 818z"/> <path d="M3555 3400 c-80 -63 -84 -123 -16 -279 80 -180 78 -259 -9 -435 -127 -258 -134 -416 -30 -693 116 -309 419 -173 322 144 -57 190 -53 247 29 413 209 425 -15 1071 -296 850z"/> </g> </svg> 