<?xml version="1.0" standalone="no"?>
<!DOCTYPE svg PUBLIC "-//W3C//DTD SVG 20010904//EN"
 "http://www.w3.org/TR/2001/REC-SVG-20010904/DTD/svg10.dtd">
<svg version="1.0" xmlns="http://www.w3.org/2000/svg"
 width="300.000000pt" height="325.000000pt" viewBox="0 0 300.000000 325.000000"
 preserveAspectRatio="xMidYMid meet">
<metadata>
Created by potrace 1.10, written by Peter Selinger 2001-2011
</metadata>
<g transform="translate(0.000000,325.000000) scale(0.100000,-0.100000)"
fill="#000000" stroke="none">
<path d="M412 3127 l-32 -33 588 -587 c323 -323 592 -587 598 -587 6 0 23 14
39 30 l29 31 -589 589 c-325 325 -592 590 -596 590 -3 0 -19 -15 -37 -33z"/>
<path d="M2303 2565 c-12 -8 -64 -79 -116 -158 -139 -208 -268 -357 -417 -479
l-45 -37 230 -230 c126 -127 233 -231 236 -231 9 0 73 134 89 183 6 20 14 37
16 37 3 0 34 -20 69 -45 173 -124 265 -143 386 -83 75 38 169 124 169 156 0
16 -67 92 -217 248 -267 277 -321 338 -329 371 -4 14 -3 57 1 97 13 113 11
143 -10 165 -22 25 -33 26 -62 6z"/>
<path d="M217 1950 c-44 -35 -37 -66 54 -229 45 -80 91 -159 101 -174 20 -28
20 -28 -6 -120 -14 -51 -28 -112 -31 -137 -10 -70 17 -173 81 -310 53 -112 58
-131 57 -185 -1 -34 -18 -115 -38 -184 -19 -69 -35 -140 -35 -159 0 -68 122
-257 199 -309 28 -19 49 -23 115 -25 197 -5 275 8 290 47 16 42 6 94 -25 129
-29 34 -73 50 -159 58 -17 2 -31 15 -47 43 -43 77 -41 96 30 245 71 148 113
264 123 340 6 48 8 50 48 62 46 13 208 13 456 1 l165 -8 12 -50 c7 -27 20
-144 28 -260 31 -428 44 -501 100 -561 42 -45 97 -57 231 -52 137 5 177 23
182 80 2 20 -4 50 -12 67 -20 37 -92 81 -160 96 l-51 12 1 124 c1 129 23 317
55 478 19 96 60 196 125 302 27 45 33 63 25 76 -9 17 -355 361 -453 451 l-47
43 -77 -21 c-129 -33 -339 -57 -709 -80 -141 -9 -243 -25 -273 -44 -6 -3 -68
55 -140 129 -143 149 -167 163 -215 125z"/>
</g>
</svg>
