 <svg  version="1.0" xmlns="http://www.w3.org/2000/svg"  width="300.000000pt" height="300.000000pt" viewBox="0 0 300.000000 300.000000"  preserveAspectRatio="xMidYMid meet">  <g transform="translate(0.000000,300.000000) scale(0.050000,-0.050000)" fill="#ffffff" stroke="none"> <path d="M2936 5159 c-19 -11 -40 -51 -47 -89 -11 -58 -23 -71 -76 -79 -260 -43 -337 -61 -490 -114 -657 -229 -1171 -779 -1365 -1460 -70 -249 8 -349 153 -194 180 191 522 188 713 -7 123 -126 166 -127 252 -3 113 162 442 208 685 94 l126 -58 2 -1174 c1 -1292 -4 -1240 123 -1240 110 0 108 -25 108 1237 l0 1165 65 39 c239 144 638 110 760 -64 83 -119 125 -121 233 -12 205 208 547 218 731 23 147 -158 222 -47 142 211 -268 858 -953 1439 -1836 1556 -84 11 -95 18 -95 61 0 95 -103 155 -184 108z"/> </g> </svg> 